# xmcd CD database file
#
# Track frame offsets:
#	150
#	16505
#	32712
#	49495
#	68570
#	85527
#	99152
#	111350
#	128307
#	143115
#	155635
#
# Disc length: 2256 seconds
#
# Revision: 4
# Processed by: cddbd v1.5.2PL0 Copyright (c) Steve Scherf et al.
# Submitted via: CDex 1.79
#
DISCID=7d08ce0b
DTITLE=Jason Sellers - I`m Your Man
DYEAR=1997
DGENRE=Country
TTITLE0=I`m Your Man
TTITLE1=Walking In My Sleep
TTITLE2=This Small Divide
TTITLE3=Can`t Help Calling Your Name
TTITLE4=Hole In My Heart
TTITLE5=That Does It
TTITLE6=I Can`t Stay Long
TTITLE7=Divorce My Heart
TTITLE8=You Better Believe It
TTITLE9=I Need To Rmemeber This
TTITLE10=It`s A Man`s Job
EXTD=YEAR: 1997
EXTT0=
EXTT1=
EXTT2=
EXTT3=
EXTT4=
EXTT5=
EXTT6=
EXTT7=
EXTT8=
EXTT9=
EXTT10=
PLAYORDER=
